<?xml version="1.0" encoding="UTF-8"?>
<svg xmlns="http://www.w3.org/2000/svg" viewBox="0 0 1000000 1000000" fill="none">
  <g
    stroke="#8a5a24"
    stroke-opacity="0.78"
    stroke-width="30"
    stroke-linecap="round"
    stroke-linejoin="round"
  >
    <path d="M 151521 0 l 0 111706 l 359320 0 l 0 274516 l -77925 0 l 0 -168957 l -281395 0 l 0 271895 l 192768 0 l 0 77925 l -192768 0 l 0 281395 l 281395 0 l 0 -192768 l 77925 0 l 0 192768 l 271895 0 l 0 -281395 l -168957 0 l 0 -77925 l 274516 0 l -0 359320 l 111706 0"/>
    <path d="M 253496 746504 l 80871 0 l 0 -80871 l -80871 0 l 0 80871"/>
    <path d="M 432916 567084 l 77925 0 l 0 -77925 l -77925 0 l 0 77925"/>
    <path d="M 690260 746504 l -80871 0 l 0 -80871 l 80871 0 l 0 80871"/>
    <path d="M 1000000 1000000 l -1000000 0 l 0 -1000000"/>
  </g>
</svg>
